<?xml version="1.0" encoding="UTF-8" standalone="no"?>
<svg
   xmlns:dc="http://purl.org/dc/elements/1.1/"
   xmlns:cc="http://creativecommons.org/ns#"
   xmlns:rdf="http://www.w3.org/1999/02/22-rdf-syntax-ns#"
   xmlns:svg="http://www.w3.org/2000/svg"
   xmlns="http://www.w3.org/2000/svg"
   xmlns:sodipodi="http://sodipodi.sourceforge.net/DTD/sodipodi-0.dtd"
   xmlns:inkscape="http://www.inkscape.org/namespaces/inkscape"
   viewBox="0 0 294.1 256.3"
   id="svg3099"
   version="1.1"
   inkscape:version="0.48.2 r9819"
   width="100%"
   height="100%"
   sodipodi:docname="html5_offline_storage.svg">
  <metadata
     id="metadata3109">
    <rdf:RDF>
      <cc:Work
         rdf:about="">
        <dc:format>image/svg+xml</dc:format>
        <dc:type
           rdf:resource="http://purl.org/dc/dcmitype/StillImage" />
      </cc:Work>
    </rdf:RDF>
  </metadata>
  <defs
     id="defs3107" />
  <sodipodi:namedview
     pagecolor="#ffffff"
     bordercolor="#666666"
     borderopacity="1"
     objecttolerance="10"
     gridtolerance="10"
     guidetolerance="10"
     inkscape:pageopacity="0"
     inkscape:pageshadow="2"
     inkscape:window-width="1448"
     inkscape:window-height="860"
     id="namedview3105"
     showgrid="false"
     inkscape:zoom="0.92079594"
     inkscape:cx="-42.840511"
     inkscape:cy="218.3574"
     inkscape:window-x="0"
     inkscape:window-y="0"
     inkscape:window-maximized="0"
     inkscape:current-layer="svg3099" />
  <title
     id="title3101">HTML5 Offline Storage Logo</title>
  <path
     d="M294.1,79.0H246.3C226.7,31.9,180.0,0,128.1,0C57.5,0,0,57.4,0,128.1 C0,198.8,57.5,256.3,128.1,256.3c51.9,0,98.5-31.8,118.2-79.0h47.7V79.0z M256.1,139.2H128.1 c-6.1,0-11.1-4.9-11.1-11.1c0-6.1,4.9-11.1,11.1-11.1h127.9V139.2z M128.1,218.3 c-49.7,0-90.1-40.4-90.1-90.1c0-49.7,40.4-90.1,90.1-90.1c30.8,0,59.1,16.0,75.5,41.0h-75.5 c-27.0,0-49.1,22.0-49.1,49.1c0,27.0,22.0,49.1,49.1,49.1h75.5 C187.3,202.3,159.0,218.3,128.1,218.3z"
     id="path3103"
     fill="#231F20" />
</svg>
