<?xml version="1.0" encoding="UTF-8" standalone="no"?>
<!-- Created with Inkscape (http://www.inkscape.org/) -->

<svg
   xmlns:dc="http://purl.org/dc/elements/1.1/"
   xmlns:cc="http://creativecommons.org/ns#"
   xmlns:rdf="http://www.w3.org/1999/02/22-rdf-syntax-ns#"
   xmlns:svg="http://www.w3.org/2000/svg"
   xmlns="http://www.w3.org/2000/svg"
   xmlns:sodipodi="http://sodipodi.sourceforge.net/DTD/sodipodi-0.dtd"
   xmlns:inkscape="http://www.inkscape.org/namespaces/inkscape"
   width="21"
   height="21"
   id="svg3169"
   version="1.1"
   inkscape:version="0.48.2 r9819"
   sodipodi:docname="offline_1.svg">
  <defs
     id="defs3171" />
  <sodipodi:namedview
     id="base"
     pagecolor="#ffffff"
     bordercolor="#666666"
     borderopacity="1.0"
     inkscape:pageopacity="0.0"
     inkscape:pageshadow="2"
     inkscape:zoom="22"
     inkscape:cx="10.830652"
     inkscape:cy="10.251989"
     inkscape:current-layer="layer1"
     showgrid="true"
     inkscape:document-units="px"
     inkscape:grid-bbox="true"
     inkscape:window-width="1328"
     inkscape:window-height="860"
     inkscape:window-x="118"
     inkscape:window-y="0"
     inkscape:window-maximized="0" />
  <metadata
     id="metadata3174">
    <rdf:RDF>
      <cc:Work
         rdf:about="">
        <dc:format>image/svg+xml</dc:format>
        <dc:type
           rdf:resource="http://purl.org/dc/dcmitype/StillImage" />
        <dc:title />
      </cc:Work>
    </rdf:RDF>
  </metadata>
  <g
     id="layer1"
     inkscape:label="Layer 1"
     inkscape:groupmode="layer"
     transform="translate(0,-43)">
    <g
       id="g3297"
       transform="matrix(0,0.30234453,-0.30234453,0,20.393438,43.861594)"
       style="fill:#000000">
      <path
         style="opacity:0.98999999;fill:#000000;fill-opacity:1;stroke:none"
         d="M 30.551136,1.7897727 C 15.14988,2.1422593 1.4392987,15.757091 0.99199059,31.165855 0.13321325,45.380438 10.327628,59.446181 24.243514,62.748093 37.869779,66.353211 53.520742,59.382121 59.632213,46.600779 66.172277,33.791043 62.378441,16.531919 50.612434,8.0710087 44.919438,3.7427233 37.69476,1.4874821 30.551136,1.7897727 z m 1.71875,9.0937503 c 8.538336,-0.132517 17.672705,5.038883 20.03541,13.599239 1.107751,1.895467 1.872497,5.462526 -1.473279,4.432011 -2.729044,0 -5.458087,0 -8.187131,0 0,2.427083 0,4.854167 0,7.28125 3.625,0 7.25,0 10.875,0 -0.832823,8.212273 -6.948715,15.869119 -15.19151,17.549787 -8.727936,2.292054 -19.163599,-0.223666 -24.504712,-7.868565 -2.009177,-2.909894 -3.078296,-6.380189 -3.491278,-9.868722 3.46875,0 6.9375,0 10.40625,0 0,-2.427083 0,-4.854167 0,-7.28125 -3.4375,0 -6.875,0 -10.3125,0 0.93994,-7.939364 6.843258,-15.216938 14.787746,-16.944863 2.295077,-0.625682 4.677807,-0.923531 7.056004,-0.898887 z m -11.4375,8.6875 c 0,8.697917 0,17.395833 0,26.09375 2.229167,0 4.458333,0 6.6875,0 0,-8.697917 0,-17.395833 0,-26.09375 -2.229167,0 -4.458333,0 -6.6875,0 z m 15.03125,0.34375 c 0,8.697917 0,17.395833 0,26.09375 2.229167,0 4.458333,0 6.6875,0 0,-8.697917 0,-17.395833 0,-26.09375 -2.229167,0 -4.458333,0 -6.6875,0 z"
         id="rect3230-4"
         inkscape:connector-curvature="0" />
    </g>
  </g>
</svg>
